<?xml version="1.0" standalone="no"?>
<!DOCTYPE svg PUBLIC "-//W3C//DTD SVG 20010904//EN"
 "http://www.w3.org/TR/2001/REC-SVG-20010904/DTD/svg10.dtd">
<svg version="1.0" xmlns="http://www.w3.org/2000/svg"
 width="595.000000pt" height="180.000000pt" viewBox="0 0 595.000000 180.000000"
 preserveAspectRatio="xMidYMid meet">

<g transform="translate(0.000000,180.000000) scale(0.100000,-0.100000)"
fill="#000000" stroke="none">
<path d="M0 900 l0 -900 2975 0 2975 0 0 900 0 900 -2975 0 -2975 0 0 -900z
m3997 474 c70 -53 91 -132 54 -206 -30 -61 -63 -82 -136 -86 -47 -2 -67 1 -93
17 -47 30 -72 77 -72 136 0 103 69 169 168 162 32 -2 63 -11 79 -23z m1192 -3
c124 -89 61 -291 -91 -291 -57 0 -96 17 -131 60 -67 79 -29 211 73 253 32 13
117 1 149 -22z m-3700 -329 c93 -27 168 -99 191 -181 5 -20 10 -158 10 -313
l0 -278 -135 0 -135 0 0 228 c0 202 -3 232 -20 269 -21 47 -69 83 -111 83 -47
0 -111 -42 -136 -90 -22 -41 -23 -53 -23 -267 l0 -223 -135 0 -135 0 0 385 0
385 135 0 135 0 0 -35 0 -35 48 34 c91 65 184 76 311 38z m960 7 c92 -21 168
-78 202 -154 17 -36 19 -71 19 -332 l0 -293 -135 0 -135 0 0 235 c0 254 -2
266 -55 315 -21 20 -37 25 -75 25 -55 0 -91 -21 -127 -75 -22 -32 -23 -41 -23
-266 l0 -234 -140 0 -140 0 0 385 0 385 140 0 140 0 0 -30 c0 -33 11 -38 31
-14 20 24 88 55 138 63 50 8 91 5 160 -10z m2405 1 c71 -6 183 -10 249 -10 97
0 118 -3 114 -14 -5 -11 3 -11 41 2 71 23 243 22 312 -2 202 -69 315 -245 280
-437 -27 -150 -123 -255 -275 -302 -85 -26 -242 -28 -317 -4 -39 12 -46 12
-41 1 4 -12 -19 -14 -131 -14 l-136 0 1 193 c1 111 5 177 9 157 6 -27 7 -20 7
35 0 55 -1 62 -7 35 -6 -27 -8 -15 -9 47 -1 97 22 85 -204 113 -223 28 -267
25 -267 -19 0 -27 18 -38 116 -71 100 -34 151 -65 187 -112 72 -94 54 -245
-36 -325 -66 -58 -118 -68 -342 -68 -110 0 -298 4 -417 9 l-218 9 0 384 0 383
135 0 135 0 2 -257 3 -258 80 -17 c157 -34 342 -61 368 -54 33 8 51 39 38 65
-6 10 -45 32 -87 50 -151 61 -214 121 -230 217 -9 58 17 141 58 183 89 92 209
109 582 81z m-4194 -95 l0 -95 -285 0 -285 0 0 95 0 95 285 0 285 0 0 -95z m0
-295 l0 -90 -285 0 -285 0 0 90 0 90 285 0 285 0 0 -90z m0 -300 l0 -90 -285
0 -285 0 0 90 0 90 285 0 285 0 0 -90z"/>
<path d="M5069 923 c-13 -16 -12 -17 4 -4 16 13 21 21 13 21 -2 0 -10 -8 -17
-17z"/>
<path d="M5350 809 c-62 -25 -100 -85 -100 -157 0 -87 62 -153 152 -159 100
-7 172 61 172 163 0 117 -115 196 -224 153z"/>
<path d="M4971 744 c0 -11 3 -14 6 -6 3 7 2 16 -1 19 -3 4 -6 -2 -5 -13z"/>
<path d="M4970 564 c0 -10 5 -26 10 -34 8 -11 9 -7 4 15 -8 37 -14 45 -14 19z"/>
<path d="M5065 390 c21 -22 41 -40 44 -40 3 0 -13 18 -34 40 -21 22 -41 40
-44 40 -3 0 13 -18 34 -40z"/>
</g>
</svg>
